<mxfile host="app.diagrams.net" modified="2023-12-02T18:27:13.462Z" agent="Mozilla/5.0 (Windows NT 10.0; Win64; x64) AppleWebKit/537.36 (KHTML, like Gecko) Chrome/119.0.0.0 Safari/537.36" etag="kf0OZpfDjHbYSMjv2ZBl" version="22.1.5" type="google">
  <diagram name="Sayfa -1" id="XrbZ3DO2ixKpfatYGQCy">
    <mxGraphModel grid="1" page="1" gridSize="10" guides="1" tooltips="1" connect="1" arrows="1" fold="1" pageScale="1" pageWidth="827" pageHeight="1169" math="0" shadow="0">
      <root>
        <mxCell id="0" />
        <mxCell id="1" parent="0" />
        <mxCell id="1bSLnVZfvs_Mm8w_w8Ks-1" value="Service Provider" style="shape=umlActor;verticalLabelPosition=bottom;verticalAlign=top;html=1;outlineConnect=0;" vertex="1" parent="1">
          <mxGeometry x="100" y="150" width="30" height="60" as="geometry" />
        </mxCell>
        <mxCell id="1bSLnVZfvs_Mm8w_w8Ks-5" value="Service Requester" style="shape=umlActor;verticalLabelPosition=bottom;verticalAlign=top;html=1;outlineConnect=0;" vertex="1" parent="1">
          <mxGeometry x="100" y="350" width="30" height="60" as="geometry" />
        </mxCell>
        <mxCell id="1bSLnVZfvs_Mm8w_w8Ks-14" value="Payment Authorization" style="shape=umlActor;verticalLabelPosition=bottom;verticalAlign=top;html=1;outlineConnect=0;" vertex="1" parent="1">
          <mxGeometry x="730" y="230" width="30" height="60" as="geometry" />
        </mxCell>
        <mxCell id="1bSLnVZfvs_Mm8w_w8Ks-18" value="" style="swimlane;startSize=0;" vertex="1" parent="1">
          <mxGeometry x="190" y="10" width="450" height="660" as="geometry" />
        </mxCell>
        <mxCell id="1bSLnVZfvs_Mm8w_w8Ks-3" value="Make Payment" style="ellipse;whiteSpace=wrap;html=1;" vertex="1" parent="1bSLnVZfvs_Mm8w_w8Ks-18">
          <mxGeometry x="190" y="450" width="120" height="80" as="geometry" />
        </mxCell>
        <mxCell id="1bSLnVZfvs_Mm8w_w8Ks-16" value="Manage Time Slot" style="ellipse;whiteSpace=wrap;html=1;" vertex="1" parent="1bSLnVZfvs_Mm8w_w8Ks-18">
          <mxGeometry x="80" y="140" width="120" height="80" as="geometry" />
        </mxCell>
        <mxCell id="1bSLnVZfvs_Mm8w_w8Ks-10" value="Search Service" style="ellipse;whiteSpace=wrap;html=1;" vertex="1" parent="1bSLnVZfvs_Mm8w_w8Ks-18">
          <mxGeometry x="320" y="300" width="120" height="80" as="geometry" />
        </mxCell>
        <mxCell id="1bSLnVZfvs_Mm8w_w8Ks-9" value="Write Review" style="ellipse;whiteSpace=wrap;html=1;" vertex="1" parent="1bSLnVZfvs_Mm8w_w8Ks-18">
          <mxGeometry x="210" y="360" width="120" height="80" as="geometry" />
        </mxCell>
        <mxCell id="1bSLnVZfvs_Mm8w_w8Ks-4" value="Schedule Appointment" style="ellipse;whiteSpace=wrap;html=1;" vertex="1" parent="1bSLnVZfvs_Mm8w_w8Ks-18">
          <mxGeometry x="30" y="380" width="120" height="80" as="geometry" />
        </mxCell>
        <mxCell id="1bSLnVZfvs_Mm8w_w8Ks-27" value="Manage User Account" style="ellipse;whiteSpace=wrap;html=1;" vertex="1" parent="1bSLnVZfvs_Mm8w_w8Ks-18">
          <mxGeometry x="30" y="230" width="120" height="80" as="geometry" />
        </mxCell>
        <mxCell id="1bSLnVZfvs_Mm8w_w8Ks-30" value="Ask Help" style="ellipse;whiteSpace=wrap;html=1;" vertex="1" parent="1bSLnVZfvs_Mm8w_w8Ks-18">
          <mxGeometry x="30" y="470" width="120" height="80" as="geometry" />
        </mxCell>
        <mxCell id="1bSLnVZfvs_Mm8w_w8Ks-31" value="Receive Payment" style="ellipse;whiteSpace=wrap;html=1;" vertex="1" parent="1bSLnVZfvs_Mm8w_w8Ks-18">
          <mxGeometry x="190" y="80" width="120" height="80" as="geometry" />
        </mxCell>
        <mxCell id="1bSLnVZfvs_Mm8w_w8Ks-34" value="Manage Proposal" style="ellipse;whiteSpace=wrap;html=1;" vertex="1" parent="1bSLnVZfvs_Mm8w_w8Ks-18">
          <mxGeometry x="190" y="250" width="120" height="80" as="geometry" />
        </mxCell>
        <mxCell id="1bSLnVZfvs_Mm8w_w8Ks-47" value="SamWise Service App" style="text;html=1;strokeColor=none;fillColor=none;align=center;verticalAlign=middle;whiteSpace=wrap;rounded=0;" vertex="1" parent="1bSLnVZfvs_Mm8w_w8Ks-18">
          <mxGeometry x="315" y="10" width="130" height="30" as="geometry" />
        </mxCell>
        <mxCell id="HEN3slZiOM74aP2TXETN-6" value="Analyze System Performance" style="ellipse;whiteSpace=wrap;html=1;" vertex="1" parent="1bSLnVZfvs_Mm8w_w8Ks-18">
          <mxGeometry x="30" y="570" width="120" height="80" as="geometry" />
        </mxCell>
        <mxCell id="HEN3slZiOM74aP2TXETN-7" value="Troubleshoot System" style="ellipse;whiteSpace=wrap;html=1;" vertex="1" parent="1bSLnVZfvs_Mm8w_w8Ks-18">
          <mxGeometry x="180" y="550" width="120" height="80" as="geometry" />
        </mxCell>
        <mxCell id="2B6I4WG9EYyTtsz0mw-m-3" style="rounded=0;orthogonalLoop=1;jettySize=auto;html=1;exitX=0;exitY=0.5;exitDx=0;exitDy=0;fontSize=12;startSize=8;endSize=8;" edge="1" parent="1bSLnVZfvs_Mm8w_w8Ks-18" source="2B6I4WG9EYyTtsz0mw-m-1">
          <mxGeometry relative="1" as="geometry">
            <mxPoint x="-40" y="160" as="targetPoint" />
          </mxGeometry>
        </mxCell>
        <mxCell id="2B6I4WG9EYyTtsz0mw-m-1" value="Approve Appointment" style="ellipse;whiteSpace=wrap;html=1;" vertex="1" parent="1bSLnVZfvs_Mm8w_w8Ks-18">
          <mxGeometry x="100" y="40" width="90" height="60" as="geometry" />
        </mxCell>
        <mxCell id="1bSLnVZfvs_Mm8w_w8Ks-2" value="Manage Service" style="ellipse;whiteSpace=wrap;html=1;" vertex="1" parent="1bSLnVZfvs_Mm8w_w8Ks-18">
          <mxGeometry x="30" y="20" width="70" height="50" as="geometry" />
        </mxCell>
        <mxCell id="1bSLnVZfvs_Mm8w_w8Ks-25" value="" style="endArrow=none;html=1;rounded=0;entryX=0;entryY=0.5;entryDx=0;entryDy=0;" edge="1" parent="1" target="1bSLnVZfvs_Mm8w_w8Ks-2">
          <mxGeometry width="50" height="50" relative="1" as="geometry">
            <mxPoint x="150" y="170" as="sourcePoint" />
            <mxPoint x="430" y="160" as="targetPoint" />
          </mxGeometry>
        </mxCell>
        <mxCell id="1bSLnVZfvs_Mm8w_w8Ks-26" value="" style="endArrow=none;html=1;rounded=0;entryX=0.028;entryY=0.425;entryDx=0;entryDy=0;entryPerimeter=0;" edge="1" parent="1" target="1bSLnVZfvs_Mm8w_w8Ks-16">
          <mxGeometry width="50" height="50" relative="1" as="geometry">
            <mxPoint x="150" y="170" as="sourcePoint" />
            <mxPoint x="430" y="160" as="targetPoint" />
          </mxGeometry>
        </mxCell>
        <mxCell id="1bSLnVZfvs_Mm8w_w8Ks-28" value="" style="endArrow=none;html=1;rounded=0;entryX=0.05;entryY=0.225;entryDx=0;entryDy=0;entryPerimeter=0;" edge="1" parent="1" target="1bSLnVZfvs_Mm8w_w8Ks-27">
          <mxGeometry width="50" height="50" relative="1" as="geometry">
            <mxPoint x="150" y="170" as="sourcePoint" />
            <mxPoint x="430" y="280" as="targetPoint" />
          </mxGeometry>
        </mxCell>
        <mxCell id="1bSLnVZfvs_Mm8w_w8Ks-29" value="" style="endArrow=none;html=1;rounded=0;exitX=0.011;exitY=0.417;exitDx=0;exitDy=0;exitPerimeter=0;" edge="1" parent="1" source="1bSLnVZfvs_Mm8w_w8Ks-4">
          <mxGeometry width="50" height="50" relative="1" as="geometry">
            <mxPoint x="380" y="330" as="sourcePoint" />
            <mxPoint x="150" y="170" as="targetPoint" />
          </mxGeometry>
        </mxCell>
        <mxCell id="1bSLnVZfvs_Mm8w_w8Ks-32" value="" style="endArrow=none;html=1;rounded=0;entryX=0.089;entryY=0.158;entryDx=0;entryDy=0;entryPerimeter=0;" edge="1" parent="1" target="1bSLnVZfvs_Mm8w_w8Ks-30">
          <mxGeometry width="50" height="50" relative="1" as="geometry">
            <mxPoint x="150" y="170" as="sourcePoint" />
            <mxPoint x="430" y="320" as="targetPoint" />
          </mxGeometry>
        </mxCell>
        <mxCell id="1bSLnVZfvs_Mm8w_w8Ks-35" value="" style="endArrow=none;html=1;rounded=0;entryX=0.039;entryY=0.342;entryDx=0;entryDy=0;entryPerimeter=0;" edge="1" parent="1" target="1bSLnVZfvs_Mm8w_w8Ks-31">
          <mxGeometry width="50" height="50" relative="1" as="geometry">
            <mxPoint x="150" y="170" as="sourcePoint" />
            <mxPoint x="430" y="190" as="targetPoint" />
          </mxGeometry>
        </mxCell>
        <mxCell id="1bSLnVZfvs_Mm8w_w8Ks-36" value="" style="endArrow=none;html=1;rounded=0;entryX=0;entryY=0.5;entryDx=0;entryDy=0;" edge="1" parent="1" target="1bSLnVZfvs_Mm8w_w8Ks-27">
          <mxGeometry width="50" height="50" relative="1" as="geometry">
            <mxPoint x="140" y="360" as="sourcePoint" />
            <mxPoint x="430" y="390" as="targetPoint" />
          </mxGeometry>
        </mxCell>
        <mxCell id="1bSLnVZfvs_Mm8w_w8Ks-37" value="" style="endArrow=none;html=1;rounded=0;entryX=0;entryY=0.5;entryDx=0;entryDy=0;" edge="1" parent="1" target="1bSLnVZfvs_Mm8w_w8Ks-4">
          <mxGeometry width="50" height="50" relative="1" as="geometry">
            <mxPoint x="140" y="360" as="sourcePoint" />
            <mxPoint x="430" y="390" as="targetPoint" />
          </mxGeometry>
        </mxCell>
        <mxCell id="1bSLnVZfvs_Mm8w_w8Ks-38" value="" style="endArrow=none;html=1;rounded=0;entryX=0.5;entryY=0;entryDx=0;entryDy=0;" edge="1" parent="1" target="1bSLnVZfvs_Mm8w_w8Ks-9">
          <mxGeometry width="50" height="50" relative="1" as="geometry">
            <mxPoint x="140" y="360" as="sourcePoint" />
            <mxPoint x="430" y="390" as="targetPoint" />
          </mxGeometry>
        </mxCell>
        <mxCell id="1bSLnVZfvs_Mm8w_w8Ks-39" value="" style="endArrow=none;html=1;rounded=0;entryX=0;entryY=0.5;entryDx=0;entryDy=0;" edge="1" parent="1" target="1bSLnVZfvs_Mm8w_w8Ks-10">
          <mxGeometry width="50" height="50" relative="1" as="geometry">
            <mxPoint x="140" y="360" as="sourcePoint" />
            <mxPoint x="430" y="390" as="targetPoint" />
          </mxGeometry>
        </mxCell>
        <mxCell id="1bSLnVZfvs_Mm8w_w8Ks-40" value="" style="endArrow=none;html=1;rounded=0;entryX=0;entryY=0.5;entryDx=0;entryDy=0;" edge="1" parent="1" target="1bSLnVZfvs_Mm8w_w8Ks-30">
          <mxGeometry width="50" height="50" relative="1" as="geometry">
            <mxPoint x="140" y="360" as="sourcePoint" />
            <mxPoint x="430" y="390" as="targetPoint" />
          </mxGeometry>
        </mxCell>
        <mxCell id="1bSLnVZfvs_Mm8w_w8Ks-41" value="" style="endArrow=none;html=1;rounded=0;entryX=0;entryY=0;entryDx=0;entryDy=0;" edge="1" parent="1" target="1bSLnVZfvs_Mm8w_w8Ks-3">
          <mxGeometry width="50" height="50" relative="1" as="geometry">
            <mxPoint x="140" y="360" as="sourcePoint" />
            <mxPoint x="430" y="390" as="targetPoint" />
            <Array as="points">
              <mxPoint x="320" y="390" />
            </Array>
          </mxGeometry>
        </mxCell>
        <mxCell id="1bSLnVZfvs_Mm8w_w8Ks-42" value="" style="endArrow=none;html=1;rounded=0;entryX=0.028;entryY=0.625;entryDx=0;entryDy=0;entryPerimeter=0;" edge="1" parent="1" target="1bSLnVZfvs_Mm8w_w8Ks-34">
          <mxGeometry width="50" height="50" relative="1" as="geometry">
            <mxPoint x="140" y="360" as="sourcePoint" />
            <mxPoint x="430" y="390" as="targetPoint" />
          </mxGeometry>
        </mxCell>
        <mxCell id="1bSLnVZfvs_Mm8w_w8Ks-43" value="" style="endArrow=none;html=1;rounded=0;" edge="1" parent="1" source="1bSLnVZfvs_Mm8w_w8Ks-34">
          <mxGeometry width="50" height="50" relative="1" as="geometry">
            <mxPoint x="380" y="310" as="sourcePoint" />
            <mxPoint x="150" y="170" as="targetPoint" />
          </mxGeometry>
        </mxCell>
        <mxCell id="1bSLnVZfvs_Mm8w_w8Ks-44" value="" style="endArrow=none;html=1;rounded=0;exitX=1;exitY=0.5;exitDx=0;exitDy=0;entryX=0;entryY=0.3333333333333333;entryDx=0;entryDy=0;entryPerimeter=0;" edge="1" parent="1" source="1bSLnVZfvs_Mm8w_w8Ks-31" target="1bSLnVZfvs_Mm8w_w8Ks-14">
          <mxGeometry width="50" height="50" relative="1" as="geometry">
            <mxPoint x="380" y="250" as="sourcePoint" />
            <mxPoint x="700" y="160" as="targetPoint" />
          </mxGeometry>
        </mxCell>
        <mxCell id="1bSLnVZfvs_Mm8w_w8Ks-45" value="" style="endArrow=none;html=1;rounded=0;entryX=0;entryY=1;entryDx=0;entryDy=0;entryPerimeter=0;exitX=1;exitY=0.5;exitDx=0;exitDy=0;" edge="1" parent="1" source="1bSLnVZfvs_Mm8w_w8Ks-3" target="1bSLnVZfvs_Mm8w_w8Ks-14">
          <mxGeometry width="50" height="50" relative="1" as="geometry">
            <mxPoint x="380" y="330" as="sourcePoint" />
            <mxPoint x="430" y="280" as="targetPoint" />
          </mxGeometry>
        </mxCell>
        <mxCell id="HEN3slZiOM74aP2TXETN-1" value="System Admin" style="shape=umlActor;verticalLabelPosition=bottom;verticalAlign=top;html=1;outlineConnect=0;" vertex="1" parent="1">
          <mxGeometry x="100" y="490" width="30" height="60" as="geometry" />
        </mxCell>
        <mxCell id="HEN3slZiOM74aP2TXETN-5" value="" style="endArrow=none;html=1;rounded=0;entryX=0;entryY=1;entryDx=0;entryDy=0;" edge="1" parent="1" target="1bSLnVZfvs_Mm8w_w8Ks-27">
          <mxGeometry width="50" height="50" relative="1" as="geometry">
            <mxPoint x="140" y="520" as="sourcePoint" />
            <mxPoint x="190" y="470" as="targetPoint" />
          </mxGeometry>
        </mxCell>
        <mxCell id="HEN3slZiOM74aP2TXETN-8" value="" style="endArrow=none;html=1;rounded=0;entryX=0;entryY=0.5;entryDx=0;entryDy=0;" edge="1" parent="1" target="HEN3slZiOM74aP2TXETN-7">
          <mxGeometry width="50" height="50" relative="1" as="geometry">
            <mxPoint x="140" y="520" as="sourcePoint" />
            <mxPoint x="160" y="600" as="targetPoint" />
          </mxGeometry>
        </mxCell>
        <mxCell id="HEN3slZiOM74aP2TXETN-9" value="" style="endArrow=none;html=1;rounded=0;" edge="1" parent="1" target="HEN3slZiOM74aP2TXETN-6">
          <mxGeometry width="50" height="50" relative="1" as="geometry">
            <mxPoint x="140" y="520" as="sourcePoint" />
            <mxPoint x="160" y="620" as="targetPoint" />
          </mxGeometry>
        </mxCell>
      </root>
    </mxGraphModel>
  </diagram>
</mxfile>
